<?xml version="1.0" encoding="UTF-8"?>
<svg width="24px" height="24px" viewBox="0 0 24 24" version="1.1" xmlns="http://www.w3.org/2000/svg" xmlns:xlink="http://www.w3.org/1999/xlink">
    <!-- Generator: Sketch 54.1 (76490) - https://sketchapp.com -->
    <title>矩形复制 8</title>
    <desc>Created with Sketch.</desc>
    <g id="个人验证" stroke="none" stroke-width="1" fill="none" fill-rule="evenodd">
        <g id="个人中心" transform="translate(-590.000000, -301.000000)" fill="#4598F0">
            <g id="编组复制-10" transform="translate(590.000000, 301.000000)">
                <path d="M13,2 L13,2 C13,2.55228475 12.5522847,3 12,3 L5,3 C3.8954305,3 3,3.8954305 3,5 L3,19 C3,20.1045695 3.8954305,21 5,21 L19,21 C20.1045695,21 21,20.1045695 21,19 L21,12 C21,11.4477153 21.4477153,11 22,11 L22,11 C22.5522847,11 23,11.4477153 23,12 L23,19 C23,21.209139 21.209139,23 19,23 L5,23 C2.790861,23 1,21.209139 1,19 L1,5 C1,2.790861 2.790861,1 5,1 L12,1 C12.5522847,1 13,1.44771525 13,2 Z" id="路径" fill-rule="nonzero"></path>
                <polygon id="矩形" transform="translate(15.424621, 8.424621) rotate(-315.000000) translate(-15.424621, -8.424621) " points="14.4246212 -1.0753788 16.4246212 -1.0753788 16.4246212 16.1150974 15.4246212 17.9246212 14.4246212 16.1150974"></polygon>
            </g>
        </g>
    </g>
</svg>